<?xml version="1.0" encoding="utf-8"?>
<!-- Generator: Adobe Illustrator 16.0.4, SVG Export Plug-In . SVG Version: 6.00 Build 0)  -->
<!DOCTYPE svg PUBLIC "-//W3C//DTD SVG 1.1 Tiny//EN" "http://www.w3.org/Graphics/SVG/1.1/DTD/svg11-tiny.dtd">
<svg version="1.1" baseProfile="tiny" id="Layer_1" xmlns="http://www.w3.org/2000/svg" xmlns:xlink="http://www.w3.org/1999/xlink"
	 x="0px" y="0px" width="117px" height="17.522px" viewBox="261.5 39.162 117 17.522" xml:space="preserve">
<g>
	<path fill="#0099CC" d="M284.23,39.344c0,0-8.693,12.473-9.325,13.379c-0.632-0.906-9.325-13.379-9.325-13.379h-4.08v17.159h3.039
		c0,0,0-11.404,0-13.5c1.225,1.766,9.36,13.5,9.36,13.5h2.013c0,0,8.137-11.735,9.361-13.5c0,2.097,0,13.5,0,13.5h3.039V39.344
		H284.23z"/>
	<path fill="#FF9900" d="M292.13,56.503h17.33v-2.635h-17.33V56.503z M292.13,39.344v2.632h17.33v-2.632H292.13z M292.13,48.99
		h17.33v-2.632h-17.33V48.99z"/>
	<path fill="#0099CC" d="M332.62,45.713V44.38c0-3.266-0.936-5.036-5.874-5.036h-13.472v17.159h3.04c0,0,0-5.726,0-6.452
		c0.766,0,10.367,0,10.367,0c1.926,0,2.834,0.242,2.834,2.451v4.001h2.903v-4.588c0-1.472-0.55-2.456-1.706-3.026
		C331.733,48.494,332.62,47.648,332.62,45.713z M326.499,47.417c0,0-9.419,0-10.185,0v-5.441c0.762,0,9.643,0,9.643,0
		c3.281,0,3.624,0.609,3.624,2v1.489C329.581,46.701,329.076,47.417,326.499,47.417z"/>
	<path fill="#0099CC" d="M345.94,47.576v2.633c0,0,7.621,0,8.367,0c0,0.465,0,1.23,0,1.23c0,1.828-0.939,2.61-3.148,2.61h-8.638
		c-2.429,0-3.419-0.888-3.419-3.061v-6.136c0-2.17,0.99-3.058,3.419-3.058h5.728c5.638,0,5.971,0.323,5.971,2.856v0.414h2.903
		v-1.002c0-3.252-2.18-4.902-6.482-4.902h-8.345c-4.428,0-6.234,1.891-6.234,6.528v4.466c0,4.634,1.807,6.528,6.234,6.528h9.111
		c4.331,0,5.941-1.748,5.941-6.439v-2.669H345.94z"/>
	<path fill="#FF9900" d="M365.924,48.99H378.5v-2.632h-12.576V48.99z M361.182,39.344v17.165H378.5v-2.641h-14.681V41.976H378.5
		v-2.632H361.182z"/>
</g>
</svg>
